# AST/ASF file generated using VICON BodyLanguage
# -----------------------------------------------
:version 1.10
:name VICON
:units
  mass 1.0
  length 0.45
  angle deg
:documentation
   .ast/.asf automatically generated from VICON data using
   VICON BodyBuilder and BodyLanguage model FoxedUp or BRILLIANT.MOD
:root
   order TX TY TZ RX RY RZ
   axis XYZ
   position 0 0 0  
   orientation 0 0 0 
:bonedata
  begin
     id 1 
     name lhipjoint
     direction 0.561001 -0.76473 0.316963 
     length 2.4722 
     axis 0 0 0  XYZ
  end
  begin
     id 2 
     name lfemur
     direction 0.34202 -0.939693 0  
     length 7.59403  
     axis 0 0 20  XYZ
    dof rx ry rz
    limits (-160.0 20.0)
           (-70.0 70.0)
           (-60.0 70.0)
  end
  begin
     id 3 
     name ltibia
     direction 0.34202 -0.939693 0   
     length 7.89655   
     axis 0 0 20   XYZ
    dof rx
    limits (-10.0 170.0)
  end
  begin
     id 4 
     name lfoot
     direction 0.061296 -0.168409 0.98381   
     length 2.73287   
     axis -90 7.62852e-016 20   XYZ
    dof rx rz
    limits (-45.0 90.0)
           (-70.0 20.0)
  end
  begin
     id 5 
     name ltoes
     direction 1.53547e-011 -4.21984e-011 1   
     length 1.37057   
     axis -90 7.62852e-016 20   XYZ
    dof rx
    limits (-90.0 20.0)
  end
  begin
     id 6 
     name rhipjoint
     direction -0.559611 -0.765599 0.317323   
     length 2.46939  
     axis 0 0 0  XYZ 
  end
  begin
     id 7 
     name rfemur
     direction -0.34202 -0.939693 0   
     length 7.53712   
     axis 0 0 -20   XYZ
    dof rx ry rz
    limits (-160.0 20.0)
           (-70.0 70.0)
           (-70.0 60.0)
  end
  begin
     id 8 
     name rtibia
     direction -0.34202 -0.939693 0   
     length 8.12549   
     axis 0 0 -20   XYZ
    dof rx
    limits (-10.0 170.0)
 end
 begin
     id 9 
     name rfoot
     direction -0.066984 -0.184037 0.980634   
     length 2.67541  
     axis -90 -7.62852e-016 -20   XYZ
    dof rx rz
    limits (-45.0 90.0)
           (-20.0 70.0)
  end
  begin
     id 10 
     name rtoes
     direction -1.53549e-011 -4.21786e-011 1   
     length 1.34085   
     axis -90 -7.62852e-016 -20   XYZ
    dof rx
    limits (-90.0 20.0)
  end
  begin
     id 11 
     name lowerback
     direction -0.0522728 0.992594 -0.109658   
     length 2.05633   
     axis 0 0 0   XYZ
    dof rx ry rz
    limits (-20.0 45.0)
           (-30.0 30.0)
           (-30.0 30.0)
  end
  begin
     id 12 
     name upperback
     direction 0.00589338 0.999977 0.00335704   
     length 2.05845   
     axis 0 0 0   XYZ
    dof rx ry rz
    limits (-20.0 45.0)
           (-30.0 30.0)
           (-30.0 30.0)
  end
  begin
     id 13 
     name thorax
     direction 0.0292928 0.998059 0.0549487   
     length 2.09281   
     axis 0 0 0   XYZ
    dof rx ry rz
    limits (-20.0 45.0)
           (-30.0 30.0)
           (-30.0 30.0)
  end
  begin
     id 14 
     name lowerneck
     direction 0.0356368 0.980775 0.191858   
     length 1.84767   
     axis 0 0 0   XYZ
    dof rx ry rz
    limits (-20.0 45.0)
           (-30.0 30.0)
           (-30.0 30.0)
  end
  begin
     id 15 
     name upperneck
     direction -0.0227605 0.98931 -0.14404   
     length 1.89582   
     axis 0 0 0   XYZ
    dof rx ry rz
    limits (-20.0 45.0)
           (-30.0 30.0)
           (-30.0 30.0)
  end
  begin
     id 16
     name head
     direction -0.00932985 0.997511 -0.0698904  
     length 1.90213  
     axis 0 0 0   XYZ
    dof rx ry rz
    limits (-20.0 45.0)
           (-30.0 30.0)
           (-30.0 30.0)
  end
  begin
     id 17 
     name lclavicle
     direction 0.873442 0.479511 0.0846686  
     length 3.41193  
     axis 0 0 0   XYZ
    dof ry rz
    limits (-20.0 10.0)
           (0.0 20.0)
  end
  begin
     id 18 
     name lhumerus
     direction 1 -4.4897e-011 -5.62117e-018   
     length 5.59864   
     axis 180 -30 -90   XYZ
    dof rx ry rz
    limits (-60.0 90.0)
           (-90.0 90.0)
           (-90.0 90.0)
  end
  begin
     id 19
     name lradius
     direction 1 -4.48966e-011 -6.26295e-027   
     length 3.59542   
     axis 180 -30 -90   XYZ
    dof rx
    limits (-10.0 170.0)
  end
  begin
     id 20
     name lwrist
     direction 1 -4.48947e-011 -1.74096e-026   
     length 1.79771   
     axis 1.04567e-014 90 90   XYZ
    dof ry
    limits (-180.0 0.0)
 end
  begin
     id 21 
     name lhand
     direction 1 -4.49085e-011 -3.48469e-026   
     length 0.572014   
     axis 2.22196e-014 90 90   XYZ
    dof rx rz
    limits (-90.0 90.0)
           (-45.0 45.0)
  end
  begin
     id 22 
     name lfingers
     direction 1 -4.48884e-011 -6.96135e-026   
     length 0.461173   
     axis 4.44383e-014 90 90   XYZ
    dof rx
    limits (0.0 90.0)
  end
  begin
     id 23
     name lthumb
     direction 0.707107 -6.34976e-011 0.707107   
     length 0.662154   
     axis -90 45 -5.4397e-014   XYZ
    dof rx rz
    limits (-45.0 45.0)
           (-45.0 45.0)
  end
  begin
     id 24 
     name rclavicle
     direction -0.890242 0.443271 0.104786   
     length 3.46753  
     axis 0 0 0   XYZ 
    dof ry rz
    limits (-10.0 20.0)
           (-20.0 0.0)
  end
  begin
     id 25 
     name rhumerus
     direction -1 -4.48963e-011 -5.41723e-018  
     length 5.8094   
     axis 180 30 90   XYZ
    dof rx ry rz
    limits (-90.0 60.0)
           (-90.0 90.0)
           (-90.0 90.0)
  end
  begin
     id 26 
     name rradius
     direction -1 -4.48958e-011 -6.51059e-027   
     length 3.66953   
     axis 180 30 90   XYZ
    dof rx
    limits (-10.0 170.0)
  end
  begin
     id 27 
     name rwrist
     direction -1 -4.48975e-011 -1.74124e-026   
     length 1.83476   
     axis 1.04567e-014 -90 -90   XYZ
    dof ry
    limits (-180.0 0.0)
  end
  begin
     id 28
     name rhand
     direction -1 -4.49013e-011 -3.48326e-026   
     length 0.57843   
     axis 2.22196e-014 -90 -90   XYZ
    dof rx rz
    limits (-90.0 90.0)
           (-45.0 45.0)
  end
  begin
     id 29
     name rfingers
     direction -1 -4.49023e-011 -6.9669e-026   
     length 0.466345   
     axis 4.44383e-014 -90 -90   XYZ
    dof rx
    limits (0.0 90.0)
  end
  begin
     id 30
     name rthumb
     direction -0.707107 -6.34926e-011 0.707107   
     length 0.669581   
     axis -90 -45 5.4397e-014   XYZ
    dof rx rz
    limits (-45.0 45.0)
           (-45.0 45.0)
  end
:hierarchy
  begin
    root lhipjoint rhipjoint lowerback
    lhipjoint lfemur
    lfemur ltibia
    ltibia lfoot
    lfoot ltoes
    rhipjoint rfemur
    rfemur rtibia
    rtibia rfoot
    rfoot rtoes
    lowerback upperback
    upperback thorax
    thorax lowerneck lclavicle rclavicle
    lowerneck upperneck
    upperneck head
    lclavicle lhumerus
    lhumerus lradius
    lradius lwrist
    lwrist lhand lthumb
    lhand lfingers
    rclavicle rhumerus
    rhumerus rradius
    rradius rwrist
    rwrist rhand rthumb
    rhand rfingers
  end

#!OML:ASF H:\SkateBoarding\Project 1\Capture day 1\Session 1\Skater.ASF
:FULLY-SPECIFIED
:DEGREES
159
root 0.465023 18.6148 0.234469 -6.17659 21.3814 -1.52682
lowerback 8.66454 -1.26454 -3.39786
upperback -0.275168 -2.04346 -0.26478
thorax -5.04104 -0.923639 1.89559
lowerneck -14.073 0.41745 3.13049
upperneck 31.4204 0.0896894 -0.680216
head 12.8028 0.376201 -0.781861
rclavicle -6.71147e-014 7.95139e-015
rhumerus -36.2714 -6.50436 -85.7953
rradius 31.3523
rwrist -6.08097
rhand -28.229 -11.6854
rfingers 7.12502
rthumb -1.60713 -41.659
lclavicle -6.71147e-014 7.95139e-015
lhumerus -30.1757 -4.45998 91.2944
lradius 28.7205
lwrist 16.1185
lhand -20.7007 14.3345
lfingers 7.12502
lthumb 5.66331 44.2388
rfemur -26.9879 6.34506 13.7004
rtibia 50.9261
rfoot -10.9833 15.1974
rtoes -0.88125
lfemur -3.03382 -19.7996 -19.0887
ltibia 24.9173
lfoot -14.1559 -3.81537
ltoes -15.1555
160
root 0.468108 18.6195 0.287259 -5.99718 21.5141 -1.43682
lowerback 8.6122 -1.26801 -3.42854
upperback -0.292788 -2.04859 -0.246124
thorax -5.02799 -0.925254 1.93157
lowerneck -14.0866 0.358207 3.05133
upperneck 31.5407 -0.0105935 -0.568467
head 12.8536 0.339382 -0.740333
rclavicle -4.78823e-014 9.14409e-015
rhumerus -36.0132 -6.2394 -85.8879
rradius 31.5145
rwrist -6.25754
rhand -28.1407 -11.7455
rfingers 7.12502
rthumb -1.52178 -41.7198
lclavicle -4.78823e-014 9.14409e-015
lhumerus -30.1686 -4.14506 91.2609
lradius 28.6377
lwrist 15.9904
lhand -20.7988 14.3568
lfingers 7.12502
lthumb 5.56862 44.2637
rfemur -27.0754 6.1978 13.5901
rtibia 50.9564
rfoot -11.0364 15.2532
rtoes -0.926224
lfemur -2.80009 -20.2622 -19.2386
ltibia 24.5856
lfoot -14.5685 -3.44514
ltoes -15.1194
161
root 0.47147 18.6237 0.33824 -5.8185 21.6109 -1.3521
lowerback 8.55847 -1.26758 -3.4513
upperback -0.308966 -2.04749 -0.224788
thorax -5.01317 -0.924025 1.96506
lowerneck -14.1052 0.29958 2.96678
upperneck 31.6833 -0.108849 -0.456844
head 12.9154 0.303144 -0.697632
rclavicle 3.75206e-015 5.96354e-015
rhumerus -35.7519 -5.96787 -85.982
rradius 31.6926
rwrist -6.47307
rhand -28.0184 -11.8678
rfingers 7.12502
rthumb -1.40367 -41.8429
lclavicle 3.75206e-015 5.96354e-015
lhumerus -30.1817 -3.86245 91.2394
lradius 28.5875
lwrist 15.8706
lhand -20.8751 14.3604
lfingers 7.12502
lthumb 5.49497 44.2692
rfemur -27.1754 6.1086 13.4876
rtibia 50.9873
rfoot -11.1009 15.2932
rtoes -0.957617
lfemur -2.5823 -20.6989 -19.3865
ltibia 24.2868
lfoot -15.0199 -3.03956
ltoes -15.1371
162
root 0.475059 18.6274 0.387501 -5.64009 21.6776 -1.26649
lowerback 8.5 -1.26178 -3.47297
upperback -0.320285 -2.03879 -0.203571
thorax -4.99106 -0.919278 1.99664
lowerneck -14.1296 0.238585 2.88096
upperneck 31.8427 -0.210455 -0.34624
head 12.9858 0.265424 -0.655586
rclavicle 1.00138e-014 1.94809e-014
rhumerus -35.4881 -5.69653 -86.0772
rradius 31.8842
rwrist -6.72659
rhand -27.9428 -11.9355
rfingers 7.12502
rthumb -1.33062 -41.9111
lclavicle 1.00138e-014 1.94809e-014
lhumerus -30.2115 -3.62707 91.234
lradius 28.5693
lwrist 15.7724
lhand -20.9427 14.3571
lfingers 7.12502
lthumb 5.4297 44.2675
rfemur -27.2859 6.05971 13.3849
rtibia 51.0194
rfoot -11.1654 15.3274
rtoes -0.971695
lfemur -2.37849 -21.1119 -19.5402
ltibia 24.0211
lfoot -15.5097 -2.59697
ltoes -15.2027
163
root 0.478924 18.6303 0.435054 -5.46552 21.7144 -1.18344
lowerback 8.43967 -1.25398 -3.49039
upperback -0.325991 -2.02665 -0.179899
thorax -4.96228 -0.91312 2.02783
lowerneck -14.1566 0.17986 2.78941
upperneck 32.008 -0.30662 -0.238599
head 13.0599 0.229124 -0.612801
rclavicle 2.74571e-014 8.34896e-015
rhumerus -35.2176 -5.41417 -86.1739
rradius 32.0818
rwrist -6.98405
rhand -27.8292 -12.069
rfingers 7.12502
rthumb -1.22094 -42.0452
lclavicle 2.74571e-014 8.34896e-015
lhumerus -30.2566 -3.4318 91.2445
lradius 28.5807
lwrist 15.7069
lhand -21.003 14.3603
lfingers 7.12502
lthumb 5.37148 44.2723
rfemur -27.4031 6.04676 13.2859
rtibia 51.0527
rfoot -11.2229 15.3623
rtoes -0.949631
lfemur -2.18569 -21.4976 -19.6959
ltibia 23.7862
lfoot -16.0302 -2.12669
ltoes -15.2995
